<svg xmlns="http://www.w3.org/2000/svg" viewBox="0 0 1131 409" role="img" aria-label="Red Stain refined original"><path fill="#9B0000" fill-rule="evenodd" d="M800.08 20.12Q799.00 20.00 800.07 19.82L810.50 18.08Q811.00 18.00 810.64 18.36L808.36 20.64Q808.00 21.00 807.49 20.94ZM752.48 24.24Q752.00 24.00 752.53 23.94L769.81 22.13Q771.00 22.00 769.84 22.31L756.52 25.86Q756.00 26.00 755.52 25.76ZM99.24 356.24Q99.00 356.00 99.27 355.79L151.06 314.75Q152.00 314.00 153.01 313.36L192.80 288.13Q193.00 288.00 193.00 287.76L193.00 286.24Q193.00 286.00 192.79 286.12L184.67 290.63Q184.00 291.00 183.52 290.40L180.48 286.60Q180.00 286.00 180.66 285.60L194.71 277.17Q195.00 277.00 194.76 276.76L193.24 275.24Q193.00 275.00 193.19 274.72L194.76 272.36Q195.00 272.00 195.37 271.77L255.98 234.63Q257.00 234.00 255.93 234.55L215.07 255.45Q214.00 256.00 213.11 256.81L203.89 265.19Q203.00 266.00 201.95 266.59L187.21 274.88Q187.00 275.00 187.00 275.24L187.00 276.76Q187.00 277.00 187.23 276.94L190.74 276.07Q191.00 276.00 190.88 276.24L190.12 277.76Q190.00 278.00 189.77 278.14L147.42 303.74Q147.00 304.00 147.12 304.48L147.88 307.52Q148.00 308.00 147.51 308.00L141.84 308.00Q141.00 308.00 140.32 308.50L126.35 318.74Q126.00 319.00 125.76 318.64L124.24 316.36Q124.00 316.00 124.37 315.77L136.77 308.14Q137.00 308.00 137.12 307.76L137.89 306.21Q138.00 306.00 137.76 306.00L136.24 306.00Q136.00 306.00 135.80 306.13L106.41 325.73Q106.00 326.00 105.52 326.12L102.23 326.94Q102.00 327.00 102.00 326.76L102.00 325.24Q102.00 325.00 102.20 324.86L152.02 289.69Q153.00 289.00 154.06 288.44L169.76 280.13Q170.00 280.00 170.12 279.76L170.88 278.24Q171.00 278.00 170.75 278.10L166.60 279.76Q166.00 280.00 165.44 280.33L134.37 298.78Q134.00 299.00 134.24 298.64L135.76 296.36Q136.00 296.00 135.58 296.10L132.37 296.91Q132.00 297.00 132.12 296.64L132.88 294.36Q133.00 294.00 133.32 293.80L169.59 271.25Q170.00 271.00 169.52 271.00L166.48 271.00Q166.00 271.00 165.62 271.29L158.35 276.74Q158.00 277.00 157.64 276.76L155.36 275.24Q155.00 275.00 155.34 274.73L159.40 271.48Q160.00 271.00 160.64 270.58L191.00 250.66Q192.00 250.00 193.06 249.44L223.25 233.40Q224.00 233.00 223.16 233.12L217.38 233.95Q217.00 234.00 217.12 233.64L217.88 231.36Q218.00 231.00 218.34 230.83L239.66 220.17Q240.00 220.00 240.12 219.64L240.88 217.36Q241.00 217.00 241.38 216.95L247.16 216.12Q248.00 216.00 248.73 215.57L269.06 203.55Q270.00 203.00 271.08 202.88L277.92 202.12Q279.00 202.00 279.98 201.53L313.22 185.38Q314.00 185.00 314.48 184.28L317.52 179.72Q318.00 179.00 318.76 178.59L342.94 165.57Q344.00 165.00 342.85 165.33L323.36 170.90Q323.00 171.00 323.12 170.64L323.88 168.36Q324.00 168.00 324.34 167.83L335.76 162.12Q336.00 162.00 336.12 161.76L336.89 160.21Q337.00 160.00 336.76 160.00L335.24 160.00Q335.00 160.00 334.78 160.09L297.63 175.74Q297.00 176.00 296.52 176.48L293.34 179.66Q293.00 180.00 292.52 180.00L289.48 180.00Q289.00 180.00 288.57 180.22L202.07 224.45Q201.00 225.00 199.95 225.59L161.05 247.41Q160.00 248.00 159.02 248.70L139.29 262.79Q139.00 263.00 138.64 263.00L136.36 263.00Q136.00 263.00 136.20 262.70L137.76 260.36Q138.00 260.00 138.34 259.74L150.05 250.73Q151.00 250.00 152.09 249.49L165.61 243.18Q166.00 243.00 166.24 242.64L167.79 240.32Q168.00 240.00 167.64 240.12L165.23 240.92Q165.00 241.00 165.00 240.76L165.00 239.24Q165.00 239.00 165.17 238.83L169.40 234.60Q170.00 234.00 170.75 233.60L186.17 225.44Q187.00 225.00 187.60 224.28L191.53 219.56Q192.00 219.00 192.72 218.88L197.33 218.11Q198.00 218.00 197.52 218.48L194.43 221.57Q194.00 222.00 194.60 221.88L198.40 221.12Q199.00 221.00 199.54 220.70L236.57 200.24Q237.00 200.00 236.52 199.88L233.42 199.10Q233.00 199.00 233.24 198.64L234.85 196.22Q235.00 196.00 234.76 195.88L233.24 195.12Q233.00 195.00 232.76 195.13L218.62 202.67Q218.00 203.00 218.36 202.40L220.64 198.60Q221.00 198.00 221.62 197.67L239.62 188.20Q240.00 188.00 240.36 188.24L242.64 189.76Q243.00 190.00 242.69 190.31L238.60 194.40Q238.00 195.00 238.76 194.62L273.76 177.12Q274.00 177.00 274.12 176.76L274.88 175.24Q275.00 175.00 274.73 175.00L272.36 175.00Q272.00 175.00 271.68 175.16L263.01 179.49Q262.00 180.00 262.60 179.04L266.40 172.96Q267.00 172.00 268.02 171.51L327.92 142.52Q329.00 142.00 330.11 141.55L347.89 134.45Q349.00 134.00 350.19 133.88L357.81 133.12Q359.00 133.00 357.89 133.45L349.25 136.90Q349.00 137.00 348.88 137.24L348.12 138.76Q348.00 139.00 348.26 138.95L352.40 138.12Q353.00 138.00 353.57 137.77L367.75 132.10Q368.00 132.00 367.88 131.76L367.12 130.24Q367.00 130.00 367.27 130.00L373.16 130.00Q374.00 130.00 374.78 129.70L440.50 104.19Q441.00 104.00 441.48 103.76L444.57 102.21Q445.00 102.00 444.52 102.00L441.24 102.00Q441.00 102.00 441.00 101.76L441.00 100.24Q441.00 100.00 440.77 100.08L429.32 103.89Q429.00 104.00 428.76 103.76L427.24 102.24Q427.00 102.00 427.31 101.85L448.92 91.52Q450.00 91.00 451.14 90.63L516.86 69.37Q518.00 69.00 519.16 68.70L602.84 47.30Q604.00 47.00 605.18 46.77L695.82 29.23Q697.00 29.00 698.19 28.84L733.81 24.16Q735.00 24.00 736.20 24.00L745.76 24.00Q746.00 24.00 746.00 24.24L746.00 25.76Q746.00 26.00 745.76 26.05L721.18 30.77Q720.00 31.00 719.04 31.72L712.27 36.80Q712.00 37.00 711.76 36.76L710.24 35.24Q710.00 35.00 710.27 34.80L713.52 32.36Q714.00 32.00 713.41 32.09L695.96 34.85Q695.00 35.00 695.96 35.12L702.73 35.97Q703.00 36.00 702.88 36.24L702.12 37.76Q702.00 38.00 701.74 38.05L671.18 43.78Q670.00 44.00 668.87 44.39L647.91 51.68Q647.00 52.00 646.04 52.12L639.24 52.97Q639.00 53.00 639.00 52.76L639.00 51.24Q639.00 51.00 639.22 50.91L649.98 46.43Q651.00 46.00 649.92 46.24L643.00 47.78Q642.00 48.00 641.04 48.36L634.25 50.91Q634.00 51.00 634.24 51.12L635.76 51.88Q636.00 52.00 635.88 52.24L634.24 55.52Q634.00 56.00 633.48 56.12L595.17 64.74Q594.00 65.00 592.86 65.38L564.32 74.89Q564.00 75.00 563.76 75.24L562.24 76.76Q562.00 77.00 562.34 77.00L564.64 77.00Q565.00 77.00 565.33 76.87L574.53 73.19Q575.00 73.00 575.36 73.36L577.64 75.64Q578.00 76.00 578.39 75.67L583.28 71.60Q584.00 71.00 584.93 71.12L591.24 71.90Q592.00 72.00 592.60 71.52L596.72 68.22Q597.00 68.00 597.36 68.00L599.64 68.00Q600.00 68.00 599.84 68.32L598.24 71.52Q598.00 72.00 598.53 71.89L606.82 70.24Q608.00 70.00 609.01 69.35L621.27 61.47Q622.00 61.00 622.84 61.24L628.16 62.76Q629.00 63.00 629.85 62.79L640.00 60.25Q641.00 60.00 641.84 59.40L647.16 55.60Q648.00 55.00 649.03 55.09L658.80 55.90Q660.00 56.00 661.17 55.72L680.58 51.10Q681.00 51.00 681.36 50.76L683.64 49.24Q684.00 49.00 683.57 49.05L675.27 49.97Q675.00 50.00 675.12 49.76L675.88 48.24Q676.00 48.00 676.26 47.94L733.06 35.21Q734.00 35.00 733.04 34.88L726.86 34.11Q726.00 34.00 726.72 33.52L731.28 30.48Q732.00 30.00 732.87 30.00L742.76 30.00Q743.00 30.00 743.00 30.24L743.00 31.76Q743.00 32.00 742.76 32.03L736.27 32.96Q736.00 33.00 735.88 33.24L735.11 34.79Q735.00 35.00 735.24 35.00L736.76 35.00Q737.00 35.00 737.23 34.95L766.83 28.26Q768.00 28.00 769.20 27.89L810.80 24.11Q812.00 24.00 813.20 23.97L903.80 22.03Q905.00 22.00 906.15 22.34L914.77 24.93Q915.00 25.00 915.00 25.24L915.00 26.76Q915.00 27.00 914.76 27.00L908.27 27.00Q908.00 27.00 908.12 27.24L908.88 28.76Q909.00 29.00 908.73 28.99L873.20 27.06Q872.00 27.00 870.84 27.31L858.16 30.69Q857.00 31.00 855.80 31.08L782.20 35.92Q781.00 36.00 779.81 36.16L729.19 42.84Q728.00 43.00 726.82 43.21L706.49 46.91Q706.00 47.00 705.88 47.48L705.12 50.52Q705.00 51.00 704.52 51.11L674.17 57.74Q673.00 58.00 671.89 58.45L654.11 65.55Q653.00 66.00 654.18 65.78L668.15 63.16Q669.00 63.00 668.28 63.48L663.67 66.55Q663.00 67.00 663.72 67.36L668.28 69.64Q669.00 70.00 669.77 69.76L696.85 61.36Q698.00 61.00 699.18 60.80L714.82 58.20Q716.00 58.00 717.20 58.10L727.09 58.92Q728.00 59.00 728.84 58.64L734.16 56.36Q735.00 56.00 735.91 56.09L743.81 56.88Q745.00 57.00 746.18 56.79L788.82 49.21Q790.00 49.00 791.20 48.97L866.80 47.03Q868.00 47.00 866.80 46.96L812.24 45.01Q812.00 45.00 812.00 44.76L812.00 43.24Q812.00 43.00 812.24 42.97L819.04 42.12Q820.00 42.00 820.97 41.99L902.49 41.01Q903.00 41.00 902.64 41.36L900.36 43.64Q900.00 44.00 899.49 44.06L874.19 46.87Q873.00 47.00 874.20 46.95L894.64 46.02Q895.00 46.00 895.00 46.36L895.00 48.64Q895.00 49.00 895.34 49.11L897.64 49.88Q898.00 50.00 898.38 50.02L931.80 51.93Q933.00 52.00 934.18 52.21L955.57 55.93Q956.00 56.00 956.24 56.36L957.76 58.64Q958.00 59.00 957.57 59.00L929.38 59.00Q929.00 59.00 929.12 58.64L929.88 56.36Q930.00 56.00 930.37 55.94L935.28 55.12Q936.00 55.00 935.27 55.00L913.20 55.00Q912.00 55.00 913.18 55.21L922.57 56.92Q923.00 57.00 922.64 57.24L920.36 58.76Q920.00 59.00 919.57 58.99L872.24 58.00Q872.00 58.00 872.00 58.24L872.00 59.76Q872.00 60.00 872.24 60.03L902.73 63.97Q903.00 64.00 902.88 64.24L902.12 65.76Q902.00 66.00 901.73 65.99L861.20 64.06Q860.00 64.00 861.20 64.09L873.57 64.97Q874.00 65.00 874.36 65.24L876.68 66.79Q877.00 67.00 876.88 67.36L876.12 69.64Q876.00 70.00 875.62 69.98L843.20 68.07Q842.00 68.00 840.82 68.21L820.18 71.79Q819.00 72.00 820.20 71.98L886.66 71.00Q887.00 71.00 887.24 71.24L888.76 72.76Q889.00 73.00 889.34 73.01L919.40 73.98Q920.00 74.00 919.52 74.36L916.48 76.64Q916.00 77.00 915.40 77.00L905.24 77.00Q905.00 77.00 905.00 77.24L905.00 78.76Q905.00 79.00 905.24 79.03L913.73 79.97Q914.00 80.00 913.88 80.24L913.12 81.76Q913.00 82.00 912.74 81.96L907.24 81.04Q907.00 81.00 907.00 81.24L907.00 82.76Q907.00 83.00 907.24 83.03L963.62 89.95Q964.00 90.00 964.12 90.36L964.88 92.64Q965.00 93.00 964.63 93.07L960.60 93.88Q960.00 94.00 960.61 94.06L978.81 95.88Q980.00 96.00 981.17 96.28L1033.83 108.72Q1035.00 109.00 1036.13 109.40L1073.87 122.60Q1075.00 123.00 1076.03 123.61L1095.97 135.39Q1097.00 136.00 1095.80 136.11L1087.20 136.89Q1086.00 137.00 1084.92 136.48L1066.08 127.52Q1065.00 127.00 1066.01 127.65L1081.80 137.87Q1082.00 138.00 1082.00 138.24L1082.00 139.76Q1082.00 140.00 1081.76 140.00L1078.48 140.00Q1078.00 140.00 1077.56 139.80L1057.09 130.50Q1056.00 130.00 1054.84 129.68L1034.48 124.13Q1034.00 124.00 1033.52 124.12L1030.48 124.88Q1030.00 125.00 1030.47 125.15L1055.66 132.89Q1056.00 133.00 1056.00 133.36L1056.00 135.64Q1056.00 136.00 1055.66 135.88L1042.34 131.12Q1042.00 131.00 1042.00 131.36L1042.00 133.64Q1042.00 134.00 1041.64 134.00L1038.48 134.00Q1038.00 134.00 1037.53 133.89L994.17 123.28Q993.00 123.00 991.80 123.00L977.20 123.00Q976.00 123.00 977.19 123.17L996.62 125.95Q997.00 126.00 997.12 126.36L997.88 128.64Q998.00 129.00 997.63 128.91L990.33 127.08Q990.00 127.00 989.76 127.24L988.24 128.76Q988.00 129.00 988.33 129.07L1019.58 135.91Q1020.00 136.00 1019.64 136.24L1017.36 137.76Q1017.00 138.00 1016.58 137.91L979.18 130.24Q978.00 130.00 979.15 130.33L998.77 135.93Q999.00 136.00 999.00 136.24L999.00 137.76Q999.00 138.00 998.76 138.00L981.20 138.00Q980.00 138.00 981.17 138.28L1015.83 146.72Q1017.00 147.00 1018.10 147.47L1051.69 161.87Q1052.00 162.00 1051.76 162.24L1050.24 163.76Q1050.00 164.00 1049.67 163.92L1039.16 161.29Q1038.00 161.00 1038.94 161.75L1047.06 168.25Q1048.00 169.00 1046.83 168.74L1007.59 160.13Q1007.00 160.00 1006.40 160.00L1002.60 160.00Q1002.00 160.00 1002.48 160.36L1005.52 162.64Q1006.00 163.00 1005.41 163.12L1001.60 163.88Q1001.00 164.00 1001.60 164.12L1010.63 165.93Q1011.00 166.00 1011.12 166.36L1011.88 168.64Q1012.00 169.00 1012.37 169.08L1042.83 175.74Q1044.00 176.00 1045.06 176.56L1084.94 197.44Q1086.00 198.00 1086.85 198.85L1104.57 216.57Q1105.00 217.00 1104.88 217.60L1104.12 221.40Q1104.00 222.00 1104.43 222.43L1108.40 226.40Q1109.00 227.00 1109.27 227.80L1112.62 237.86Q1113.00 239.00 1112.22 238.09L1094.78 217.91Q1094.00 217.00 1093.05 216.27L1077.95 204.73Q1077.00 204.00 1075.93 203.45L1051.07 190.55Q1050.00 190.00 1048.86 189.62L1021.14 180.38Q1020.00 180.00 1018.82 179.77L955.18 167.23Q954.00 167.00 952.80 166.94L917.20 165.06Q916.00 165.00 917.19 165.14L974.81 171.86Q976.00 172.00 977.17 172.26L1001.83 177.74Q1003.00 178.00 1004.11 178.46L1025.89 187.54Q1027.00 188.00 1025.84 187.69L1008.42 183.11Q1008.00 183.00 1007.64 183.24L1005.36 184.76Q1005.00 185.00 1005.41 185.12L1041.49 195.85Q1042.00 196.00 1042.48 196.24L1045.79 197.89Q1046.00 198.00 1046.00 198.24L1046.00 199.76Q1046.00 200.00 1045.76 200.00L1042.48 200.00Q1042.00 200.00 1041.56 199.82L1021.11 191.45Q1020.00 191.00 1018.83 190.73L956.17 176.27Q955.00 176.00 953.80 175.90L897.20 171.10Q896.00 171.00 894.80 171.00L852.20 171.00Q851.00 171.00 852.19 171.14L867.62 172.96Q868.00 173.00 868.12 173.36L868.88 175.64Q869.00 176.00 868.62 176.00L840.20 176.00Q839.00 176.00 837.81 176.15L823.27 177.97Q823.00 178.00 822.88 178.24L822.12 179.76Q822.00 180.00 822.27 180.00L896.80 180.98Q898.00 181.00 899.19 181.17L931.14 185.87Q932.00 186.00 932.72 186.48L937.28 189.52Q938.00 190.00 937.14 189.96L896.24 188.01Q896.00 188.00 896.00 188.24L896.00 189.76Q896.00 190.00 896.24 190.04L930.65 195.94Q931.00 196.00 931.00 196.36L931.00 198.64Q931.00 199.00 930.64 198.98L897.99 197.06Q897.00 197.00 897.96 197.24L904.52 198.88Q905.00 199.00 904.88 199.48L904.12 202.52Q904.00 203.00 903.51 202.98L852.20 201.05Q851.00 201.00 852.20 201.08L865.66 201.98Q866.00 202.00 866.24 202.24L867.76 203.76Q868.00 204.00 867.66 204.00L862.24 204.00Q862.00 204.00 862.00 204.24L862.00 205.76Q862.00 206.00 862.24 206.00L875.76 206.00Q876.00 206.00 876.00 206.24L876.00 207.76Q876.00 208.00 875.76 208.00L856.43 208.00Q856.00 208.00 855.64 208.24L853.36 209.76Q853.00 210.00 853.43 210.00L860.76 210.00Q861.00 210.00 861.00 210.24L861.00 211.76Q861.00 212.00 860.76 212.00L852.27 212.00Q852.00 212.00 851.88 212.24L851.12 213.76Q851.00 214.00 851.26 214.06L858.92 215.76Q860.00 216.00 858.90 216.06L843.24 216.99Q843.00 217.00 843.00 217.24L843.00 218.76Q843.00 219.00 843.24 219.00L869.80 219.00Q871.00 219.00 872.19 219.18L890.76 221.96Q891.00 222.00 891.00 222.24L891.00 223.76Q891.00 224.00 890.76 223.99L823.20 220.07Q822.00 220.00 820.81 220.16L772.19 226.84Q771.00 227.00 772.20 226.99L855.80 226.01Q857.00 226.00 858.20 226.07L921.01 229.94Q922.00 230.00 922.96 230.24L929.63 231.91Q930.00 232.00 929.88 232.36L929.12 234.64Q929.00 235.00 928.62 234.96L900.43 232.04Q900.00 232.00 899.64 232.24L897.36 233.76Q897.00 234.00 896.57 233.99L863.20 233.03Q862.00 233.00 863.19 233.18L894.66 237.95Q895.00 238.00 895.24 238.24L896.76 239.76Q897.00 240.00 896.66 240.00L891.24 240.00Q891.00 240.00 891.00 240.24L891.00 241.76Q891.00 242.00 890.76 241.99L779.20 239.03Q778.00 239.00 776.81 239.13L706.19 246.87Q705.00 247.00 703.82 247.22L643.18 258.78Q642.00 259.00 640.84 259.30L585.16 273.70Q584.00 274.00 582.86 274.36L519.14 294.64Q518.00 295.00 516.90 295.48L493.33 305.86Q493.00 306.00 492.64 306.00L490.27 306.00Q490.00 306.00 490.12 305.76L490.88 304.24Q491.00 304.00 491.24 303.88L505.93 296.54Q507.00 296.00 508.19 295.88L515.81 295.12Q517.00 295.00 518.08 294.48L538.92 284.52Q540.00 284.00 541.15 283.65L614.85 261.35Q616.00 261.00 617.17 260.75L714.83 240.25Q716.00 240.00 717.19 239.85L799.81 229.15Q801.00 229.00 799.80 229.04L735.20 230.96Q734.00 231.00 732.82 231.20L664.18 242.80Q663.00 243.00 661.83 243.29L595.17 259.71Q594.00 260.00 592.91 260.50L584.09 264.50Q583.00 265.00 581.80 265.11L573.20 265.89Q572.00 266.00 570.86 266.37L524.14 281.63Q523.00 282.00 521.89 282.45L446.79 312.68Q446.00 313.00 445.16 312.88L439.84 312.12Q439.00 312.00 438.40 312.60L430.68 320.32Q430.00 321.00 429.04 321.12L422.96 321.88Q422.00 322.00 421.16 322.47L397.23 335.87Q397.00 336.00 396.76 335.88L395.24 335.12Q395.00 335.00 395.21 334.84L402.04 329.72Q403.00 329.00 401.80 329.00L392.20 329.00Q391.00 329.00 392.00 328.33L399.00 323.67Q400.00 323.00 398.95 323.58L391.33 327.82Q391.00 328.00 390.64 327.88L388.36 327.12Q388.00 327.00 388.33 326.81L417.11 310.51Q418.00 310.00 417.04 310.36L410.68 312.74Q410.00 313.00 409.28 312.88L404.72 312.12Q404.00 312.00 403.34 312.31L378.49 323.78Q378.00 324.00 377.76 324.48L376.24 327.52Q376.00 328.00 375.46 328.00L370.72 328.00Q370.00 328.00 369.36 328.33L329.39 348.80Q329.00 349.00 328.64 348.76L326.36 347.24Q326.00 347.00 325.63 347.23L299.29 363.82Q299.00 364.00 298.76 363.76L297.24 362.24Q297.00 362.00 297.24 361.76L302.28 356.72Q303.00 356.00 303.87 355.48L341.97 332.62Q343.00 332.00 341.93 332.54L333.34 336.83Q333.00 337.00 332.64 336.88L330.36 336.12Q330.00 336.00 330.30 335.76L334.40 332.48Q335.00 332.00 334.26 332.22L326.15 334.66Q325.00 335.00 323.94 335.56L303.06 346.44Q302.00 347.00 302.85 346.15L310.15 338.85Q311.00 338.00 312.05 337.42L327.95 328.58Q329.00 328.00 327.89 328.45L319.57 331.77Q319.00 332.00 318.40 331.88L314.60 331.12Q314.00 331.00 313.49 331.34L305.70 336.53Q305.00 337.00 304.16 337.00L298.84 337.00Q298.00 337.00 297.32 337.50L279.35 350.74Q279.00 351.00 278.64 350.76L276.36 349.24Q276.00 349.00 275.61 349.19L268.96 352.52Q268.00 353.00 267.12 353.62L248.20 366.86Q248.00 367.00 247.76 367.00L246.24 367.00Q246.00 367.00 246.13 366.80L247.76 364.36Q248.00 364.00 247.60 364.17L241.84 366.64Q241.00 367.00 240.23 367.49L214.42 383.74Q214.00 384.00 214.12 383.52L214.88 380.48Q215.00 380.00 215.41 379.73L226.00 372.67Q227.00 372.00 228.02 371.37L313.98 318.63Q315.00 318.00 316.07 317.45L403.47 272.28Q404.00 272.00 404.60 272.00L408.40 272.00Q409.00 272.00 409.50 271.67L417.00 266.67Q418.00 266.00 419.14 265.62L438.49 259.17Q439.00 259.00 439.48 258.76L442.66 257.17Q443.00 257.00 442.64 256.88L440.36 256.12Q440.00 256.00 439.65 256.14L398.12 272.56Q397.00 273.00 395.92 273.53L358.54 291.74Q358.00 292.00 357.40 292.00L353.60 292.00Q353.00 292.00 352.47 292.28L294.06 323.44Q293.00 324.00 292.01 324.67L265.22 342.85Q265.00 343.00 264.76 342.88L263.24 342.12Q263.00 342.00 263.15 341.78L264.76 339.36Q265.00 339.00 265.38 338.79L280.33 330.38Q281.00 330.00 281.48 329.40L284.52 325.60Q285.00 325.00 285.76 324.89L291.16 324.12Q292.00 324.00 292.55 323.36L297.28 317.84Q298.00 317.00 299.01 316.54L321.36 306.29Q322.00 306.00 322.36 305.40L324.64 301.60Q325.00 301.00 325.65 300.74L334.50 297.20Q335.00 297.00 335.24 296.52L336.76 293.48Q337.00 293.00 337.49 292.78L369.23 278.35Q370.00 278.00 369.16 277.88L363.84 277.12Q363.00 277.00 362.23 277.36L306.22 303.90Q306.00 304.00 305.76 304.00L304.24 304.00Q304.00 304.00 304.00 303.76L304.00 300.48Q304.00 300.00 304.43 299.78L326.52 288.25Q327.00 288.00 327.24 287.52L328.76 284.48Q329.00 284.00 328.48 284.12L317.17 286.73Q316.00 287.00 314.95 287.59L291.33 300.81Q291.00 301.00 290.64 300.88L288.36 300.12Q288.00 300.00 288.33 299.82L296.77 295.13Q297.00 295.00 296.76 294.88L295.24 294.12Q295.00 294.00 294.76 294.11L273.64 303.71Q273.00 304.00 273.36 303.40L275.64 299.60Q276.00 299.00 276.64 298.72L282.75 296.11Q283.00 296.00 282.76 295.88L281.24 295.12Q281.00 295.00 280.76 295.13L232.06 321.43Q231.00 322.00 230.02 322.69L188.28 351.81Q188.00 352.00 187.76 351.76L186.24 350.24Q186.00 350.00 186.25 349.77L198.47 338.49Q199.00 338.00 198.28 338.00L193.72 338.00Q193.00 338.00 193.58 337.58L203.03 330.71Q204.00 330.00 202.98 330.64L188.72 339.55Q188.00 340.00 187.16 340.12L181.84 340.88Q181.00 341.00 180.30 341.48L108.22 390.85Q108.00 391.00 107.88 390.76L107.12 389.24Q107.00 389.00 107.19 388.81L110.52 385.48Q111.00 385.00 111.53 384.58L140.06 361.75Q141.00 361.00 141.98 360.31L208.78 313.15Q209.00 313.00 208.76 312.88L207.24 312.12Q207.00 312.00 206.77 312.15L193.40 320.74Q193.00 321.00 192.52 321.00L189.24 321.00Q189.00 321.00 189.00 320.76L189.00 319.24Q189.00 319.00 189.19 318.85L209.05 303.73Q210.00 303.00 208.95 303.58L179.38 319.79Q179.00 320.00 178.64 319.76L176.36 318.24Q176.00 318.00 176.36 317.77L221.99 288.65Q223.00 288.00 221.92 288.52L193.08 302.48Q192.00 303.00 190.99 303.64L137.23 337.86Q137.00 338.00 136.76 337.88L135.24 337.12Q135.00 337.00 135.20 336.82L142.10 330.79Q143.00 330.00 144.03 329.39L164.40 317.36Q165.00 317.00 165.36 316.40L167.64 312.60Q168.00 312.00 167.34 312.22L162.72 313.76Q162.00 314.00 161.37 314.42L118.00 343.33Q117.00 344.00 116.10 344.79L101.26 357.78Q101.00 358.00 100.76 357.76ZM860.00 35.24Q860.00 35.00 860.24 34.99L884.73 34.01Q885.00 34.00 885.12 34.24L885.88 35.76Q886.00 36.00 885.73 36.04L872.27 37.96Q872.00 38.00 871.88 37.76L871.12 36.24Q871.00 36.00 870.73 36.02L860.24 36.98Q860.00 37.00 860.00 36.76ZM792.20 38.97Q791.00 39.00 792.20 38.91L842.76 35.02Q843.00 35.00 843.00 35.24L843.00 36.76Q843.00 37.00 842.76 37.04L837.72 37.88Q837.00 38.00 836.27 38.02ZM663.17 41.73Q662.00 42.00 663.20 41.93L678.23 41.05Q679.00 41.00 679.60 40.52L683.40 37.48Q684.00 37.00 683.25 37.17ZM759.12 43.24Q759.00 43.00 759.26 42.96L770.50 41.08Q771.00 41.00 770.64 41.36L768.36 43.64Q768.00 44.00 767.49 44.06L760.27 44.97Q760.00 45.00 759.88 44.76ZM795.00 45.24Q795.00 45.00 795.24 44.97L809.64 43.05Q810.00 43.00 810.00 43.36L810.00 45.64Q810.00 46.00 809.64 46.02L795.24 46.98Q795.00 47.00 795.00 46.76ZM932.12 76.36Q932.00 76.00 932.38 76.04L969.81 79.88Q971.00 80.00 972.18 80.24L1048.52 95.90Q1049.00 96.00 1048.88 96.48L1048.12 99.52Q1048.00 100.00 1048.49 100.04L1061.76 100.98Q1062.00 101.00 1062.00 101.24L1062.00 102.76Q1062.00 103.00 1061.77 102.92L1056.46 101.15Q1056.00 101.00 1056.00 101.48L1056.00 104.52Q1056.00 105.00 1056.47 105.10L1064.41 106.87Q1065.00 107.00 1065.36 107.48L1067.64 110.52Q1068.00 111.00 1067.43 110.82L1018.14 95.36Q1017.00 95.00 1015.82 94.78L937.49 80.09Q937.00 80.00 936.52 79.88L933.37 79.09Q933.00 79.00 932.88 78.64ZM475.57 90.79Q475.00 91.00 475.60 91.12L479.40 91.88Q480.00 92.00 480.52 91.67L489.99 85.64Q491.00 85.00 489.88 85.42ZM897.20 87.00Q896.00 87.00 897.19 87.11L947.81 91.89Q949.00 92.00 947.82 91.79L922.18 87.21Q921.00 87.00 919.80 87.00ZM381.13 133.60Q380.00 134.00 381.20 134.00L390.80 134.00Q392.00 134.00 393.11 133.54L414.89 124.46Q416.00 124.00 417.18 123.80L427.50 122.08Q428.00 122.00 428.36 121.64L430.64 119.36Q431.00 119.00 431.51 119.00L437.16 119.00Q438.00 119.00 438.77 118.66L476.91 101.49Q478.00 101.00 479.16 100.71L489.63 98.09Q490.00 98.00 490.12 97.64L490.88 95.36Q491.00 95.00 491.37 94.91L502.48 92.13Q503.00 92.00 502.52 91.76L499.48 90.24Q499.00 90.00 498.49 90.16L483.51 94.84Q483.00 95.00 482.52 94.76L479.48 93.24Q479.00 93.00 478.52 93.24L471.30 96.85Q471.00 97.00 471.24 97.24L472.76 98.76Q473.00 99.00 472.81 99.28L471.24 101.64Q471.00 102.00 470.58 102.12L450.36 107.90Q450.00 108.00 450.12 107.64L450.88 105.36Q451.00 105.00 451.36 104.89L460.74 102.08Q461.00 102.00 461.12 101.76L461.89 100.21Q462.00 100.00 461.76 100.00L460.24 100.00Q460.00 100.00 459.77 100.07L439.14 106.64Q438.00 107.00 436.89 107.46L414.22 116.91Q414.00 117.00 414.00 117.24L414.00 118.76Q414.00 119.00 414.23 118.93L423.01 116.30Q424.00 116.00 423.16 116.60L417.84 120.40Q417.00 121.00 416.03 121.34ZM973.72 90.48Q973.00 90.00 973.85 90.17L1031.82 101.76Q1033.00 102.00 1034.14 102.38L1053.49 108.83Q1054.00 109.00 1054.24 109.48L1055.76 112.52Q1056.00 113.00 1055.48 112.87L979.84 94.21Q979.00 94.00 978.28 93.52ZM449.23 97.92Q449.00 98.00 449.00 98.24L449.00 99.76Q449.00 100.00 449.24 99.95L453.40 99.12Q454.00 99.00 454.47 98.61L459.28 94.60Q460.00 94.00 459.12 94.32ZM350.13 145.60Q349.00 146.00 350.20 145.90L360.47 145.04Q361.00 145.00 361.24 144.52L362.76 141.48Q363.00 141.00 362.49 141.18ZM1093.49 146.35Q1093.00 146.00 1093.60 146.00L1097.40 146.00Q1098.00 146.00 1098.47 146.37L1102.70 149.76Q1103.00 150.00 1102.64 150.12L1100.36 150.88Q1100.00 151.00 1099.69 150.78ZM298.36 167.76Q298.00 168.00 298.41 167.86L316.87 161.40Q318.00 161.00 316.81 161.12L309.19 161.88Q308.00 162.00 308.85 161.15L315.15 154.85Q316.00 154.00 314.85 154.33L302.23 157.93Q302.00 158.00 302.00 158.24L302.00 159.76Q302.00 160.00 302.24 160.00L305.52 160.00Q306.00 160.00 305.57 160.21L300.34 162.83Q300.00 163.00 300.12 163.36L300.88 165.64Q301.00 166.00 300.68 166.21ZM333.68 173.75Q333.00 174.00 333.72 174.00L338.28 174.00Q339.00 174.00 339.63 173.66L350.94 167.57Q352.00 167.00 350.87 167.41ZM1023.18 173.21Q1022.00 173.00 1023.12 173.43L1046.88 182.57Q1048.00 183.00 1046.94 182.44L1034.06 175.56Q1033.00 175.00 1031.82 174.79ZM1087.48 183.96Q1087.00 183.00 1087.96 183.48L1096.79 187.89Q1097.00 188.00 1097.00 188.24L1097.00 189.76Q1097.00 190.00 1096.76 189.95L1092.59 189.12Q1092.00 189.00 1092.36 189.48L1094.68 192.57Q1095.00 193.00 1094.52 192.76L1091.48 191.24Q1091.00 191.00 1090.76 190.52ZM283.48 190.12Q283.00 190.00 283.46 189.81L293.89 185.46Q295.00 185.00 294.04 185.72L287.40 190.70Q287.00 191.00 286.52 190.88ZM957.48 188.36Q957.00 188.00 957.59 188.08L991.81 192.83Q993.00 193.00 994.16 193.31L1029.84 202.69Q1031.00 203.00 1032.10 203.47L1051.14 211.63Q1052.00 212.00 1052.60 212.72L1056.40 217.28Q1057.00 218.00 1056.12 217.67L1018.12 203.42Q1017.00 203.00 1015.84 202.70L975.16 192.30Q974.00 192.00 972.80 191.91L961.60 191.05Q961.00 191.00 960.52 190.64ZM1030.84 196.72Q1030.00 196.00 1030.99 196.49L1039.66 200.83Q1040.00 201.00 1039.64 201.12L1037.36 201.88Q1037.00 202.00 1036.71 201.75ZM251.36 205.24Q251.00 205.00 251.39 204.81L266.16 197.42Q267.00 197.00 266.40 197.72L262.60 202.28Q262.00 203.00 261.16 203.42L254.39 206.81Q254.00 207.00 253.64 206.76ZM892.09 242.50Q891.00 242.00 892.20 242.07L906.49 242.97Q907.00 243.00 907.36 243.36L909.64 245.64Q910.00 246.00 909.49 246.06L902.96 246.88Q902.00 247.00 901.12 246.60ZM942.00 251.24Q942.00 251.00 942.24 251.03L949.40 251.93Q950.00 252.00 950.36 252.48L952.64 255.52Q953.00 256.00 952.42 255.84L942.23 253.06Q942.00 253.00 942.00 252.76ZM373.36 272.89Q373.00 273.00 373.12 273.36L373.88 275.64Q374.00 276.00 374.33 275.81L384.96 269.60Q386.00 269.00 384.85 269.35ZM457.71 288.74Q457.00 289.00 457.72 289.24L462.28 290.76Q463.00 291.00 463.67 290.65L488.93 277.55Q490.00 277.00 488.87 277.41ZM433.77 311.65Q433.00 312.00 433.84 311.88L439.33 311.10Q440.00 311.00 440.48 310.52L443.52 307.48Q444.00 307.00 443.38 307.28ZM101.24 316.36Q101.00 316.00 101.39 315.81L111.93 310.54Q113.00 310.00 112.11 310.80L103.32 318.71Q103.00 319.00 102.76 318.64ZM402.10 321.52Q401.00 322.00 402.15 321.67L414.58 318.12Q415.00 318.00 415.24 317.64L416.76 315.36Q417.00 315.00 416.60 315.17ZM414.21 321.89Q414.00 322.00 414.00 322.24L414.00 323.76Q414.00 324.00 414.23 323.92L419.28 322.24Q420.00 322.00 420.54 321.46L425.28 316.72Q426.00 316.00 425.09 316.46ZM45.24 356.24Q45.00 356.00 45.26 355.79L60.72 343.23Q61.00 343.00 61.36 343.00L63.64 343.00Q64.00 343.00 63.89 343.34L63.12 345.64Q63.00 346.00 63.37 345.91L66.52 345.12Q67.00 345.00 67.30 344.60L69.70 341.40Q70.00 341.00 69.52 340.88L66.48 340.12Q66.00 340.00 66.40 339.71L88.22 323.58Q89.00 323.00 89.84 322.52L95.57 319.25Q96.00 319.00 96.48 319.12L99.52 319.88Q100.00 320.00 99.57 320.25L93.53 323.70Q93.00 324.00 92.88 324.60L92.12 328.40Q92.00 329.00 91.44 329.25L83.70 332.69Q83.00 333.00 83.48 332.40L86.52 328.60Q87.00 328.00 86.36 328.43L81.72 331.52Q81.00 332.00 80.61 332.77L77.48 339.04Q77.00 340.00 76.15 340.65L51.34 359.74Q51.00 360.00 50.64 359.76L48.36 358.24Q48.00 358.00 48.33 357.72L55.10 351.79Q56.00 351.00 55.05 351.74L47.27 357.79Q47.00 358.00 46.76 357.76ZM367.36 347.24Q367.00 347.00 367.38 346.79L380.48 339.30Q381.00 339.00 381.60 339.00L385.40 339.00Q386.00 339.00 385.49 339.32L370.37 348.77Q370.00 349.00 369.64 348.76ZM18.24 380.24Q18.00 380.00 18.27 379.80L29.71 371.22Q30.00 371.00 30.00 371.36L30.00 373.64Q30.00 374.00 29.72 374.23L24.46 378.62Q24.00 379.00 23.52 379.36L20.27 381.80Q20.00 382.00 19.76 381.76ZM177.24 377.24Q177.00 377.00 177.30 376.84L184.96 372.58Q186.00 372.00 185.16 372.84L179.24 378.76Q179.00 379.00 178.76 378.76Z"/></svg>